<?xml version="1.0" encoding="UTF-8" standalone="no"?>
<!-- Created with Inkscape (http://www.inkscape.org/) -->

<!--
⁠$$\      $$\ $$\       $$\   $$\                $$$$$$\            $$\       $$\
⁠$$ | $\  $$ |$$ |      \__|  $$ |              $$  __$$\           \__|      $$ |
⁠$$ |$$$\ $$ |$$$$$$$\  $$\ $$$$$$\    $$$$$$\  $$ /  \__| $$$$$$\  $$\  $$$$$$$ | $$$$$$\   $$$$$$\   $$$$$$\   $$$$$$\
⁠$$ $$ $$\$$ |$$  __$$\ $$ |\_$$  _|  $$  __$$\ \$$$$$$\  $$  __$$\ $$ |$$  __$$ |$$  __$$\ $$  __$$\ $$  __$$\ $$  __$$\
⁠$$$$  _$$$$ |$$ |  $$ |$$ |  $$ |    $$$$$$$$ | \____$$\ $$ /  $$ |$$ |$$ /  $$ |$$$$$$$$ |$$ |  \__|$$ /  $$ |$$ /  $$ |
⁠$$$  / \$$$ |$$ |  $$ |$$ |  $$ |$$\ $$   ____|$$\   $$ |$$ |  $$ |$$ |$$ |  $$ |$$   ____|$$ |      $$ |  $$ |$$ |  $$ |
⁠$$  /   \$$ |$$ |  $$ |$$ |  \$$$$  |\$$$$$$$\ \$$$$$$  |$$$$$$$  |$$ |\$$$$$$$ |\$$$$$$$\ $$ |$$\   \$$$$$$$ |\$$$$$$$ |
⁠\__/     \__|\__|  \__|\__|   \____/  \_______| \______/ $$  ____/ \__| \_______| \_______|\__|\__|   \____$$ | \____$$ |
⁠                                                         $$ |                                        $$\   $$ |      $$ |
⁠                                                         $$ |                                        \$$$$$$  |      $$ |
⁠                                                         \__|                                         \______/       \__|
-->

<svg
   width="64"
   height="64"
   viewBox="0 0 64 64"
   version="1.1"
   id="svg5"
   inkscape:version="1.2.2 (b0a8486541, 2022-12-01)"
   sodipodi:docname="icon.svg"
   inkscape:export-filename="/home/shell/Projects/whitespider/res/logo512.png"
   inkscape:export-xdpi="192"
   inkscape:export-ydpi="192"
   xml:space="preserve"
   xmlns:inkscape="http://www.inkscape.org/namespaces/inkscape"
   xmlns:sodipodi="http://sodipodi.sourceforge.net/DTD/sodipodi-0.dtd"
   xmlns="http://www.w3.org/2000/svg"
   xmlns:svg="http://www.w3.org/2000/svg"><sodipodi:namedview
     id="namedview7"
     pagecolor="#ffffff"
     bordercolor="#111111"
     borderopacity="1"
     inkscape:pageshadow="0"
     inkscape:pageopacity="0"
     inkscape:pagecheckerboard="1"
     inkscape:document-units="px"
     showgrid="false"
     units="px"
     width="128px"
     inkscape:zoom="8.5065504"
     inkscape:cx="42.90811"
     inkscape:cy="35.678387"
     inkscape:window-width="1920"
     inkscape:window-height="1029"
     inkscape:window-x="0"
     inkscape:window-y="27"
     inkscape:window-maximized="1"
     inkscape:current-layer="layer1"
     borderlayer="true"
     scale-x="1"
     inkscape:showpageshadow="2"
     inkscape:deskcolor="#d1d1d1" /><defs
     id="defs2" /><g
     inkscape:label="Layer 1"
     inkscape:groupmode="layer"
     id="layer1"><g
       id="g7672"
       transform="matrix(1.0064777,0,0,1.0060592,-0.38590647,-0.79955041)"
       inkscape:export-filename="/home/shell/Pictures/tmp/gs/shark.png"
       inkscape:export-xdpi="96"
       inkscape:export-ydpi="96" /><g
       id="g979"
       transform="matrix(1.4595211,0,0,1.4375,0,9)"><path
         d="M 7.35,32 Q 4.35,32 2.225,29.85 0.1,27.7 0,24.65 0,24.2 0.05,23.75 0.1,23.3 0.2,22.85 L 4.4,6.05 Q 5.1,3.35 7.25,1.675 9.4,0 12.15,0 h 19.5 q 2.75,0 4.9,1.675 2.15,1.675 2.85,4.375 l 4.2,16.8 q 0.1,0.45 0.175,0.925 0.075,0.475 0.075,0.925 0,3.05 -2.175,5.175 Q 39.5,32 36.45,32 q -2.1,0 -3.9,-1.1 -1.8,-1.1 -2.7,-3 L 28.45,25 Q 28.2,24.5 27.7,24.25 27.2,24 26.65,24 h -9.5 Q 16.6,24 16.1,24.25 15.6,24.5 15.35,25 l -1.4,2.9 q -0.9,1.9 -2.7,3 Q 9.45,32 7.35,32 Z M 7.5,29 Q 8.7,29 9.725,28.35 10.75,27.7 11.3,26.6 l 1.4,-2.85 q 0.65,-1.3 1.825,-2.025 Q 15.7,21 17.15,21 h 9.5 q 1.45,0 2.625,0.75 1.175,0.75 1.875,2 l 1.4,2.85 q 0.55,1.1 1.575,1.75 1.025,0.65 2.225,0.65 1.8,0 3.1,-1.225 1.3,-1.225 1.35,-3.025 0,-0.2 -0.15,-1.2 L 36.45,6.8 Q 36.05,5.15 34.725,4.075 33.4,3 31.65,3 H 12.15 Q 10.4,3 9.075,4.05 7.75,5.1 7.35,6.8 L 3.15,23.55 Q 3.1,23.75 3,24.7 3,26.5 4.325,27.75 5.65,29 7.5,29 Z M 24.9,13.5 q 0.65,0 1.075,-0.425 Q 26.4,12.65 26.4,12 26.4,11.35 25.975,10.925 25.55,10.5 24.9,10.5 24.25,10.5 23.825,10.925 23.4,11.35 23.4,12 q 0,0.65 0.425,1.075 Q 24.25,13.5 24.9,13.5 Z m 4,-4 q 0.65,0 1.075,-0.425 Q 30.4,8.65 30.4,8 30.4,7.35 29.975,6.925 29.55,6.5 28.9,6.5 28.25,6.5 27.825,6.925 27.4,7.35 27.4,8 27.4,8.65 27.825,9.075 28.25,9.5 28.9,9.5 Z m 0,8 q 0.65,0 1.075,-0.425 Q 30.4,16.65 30.4,16 30.4,15.35 29.975,14.925 29.55,14.5 28.9,14.5 28.25,14.5 27.825,14.925 27.4,15.35 27.4,16 q 0,0.65 0.425,1.075 Q 28.25,17.5 28.9,17.5 Z m 4,-4 q 0.65,0 1.075,-0.425 Q 34.4,12.65 34.4,12 34.4,11.35 33.975,10.925 33.55,10.5 32.9,10.5 32.25,10.5 31.825,10.925 31.4,11.35 31.4,12 q 0,0.65 0.425,1.075 Q 32.25,13.5 32.9,13.5 Z m -18,3.25 q 0.55,0 0.9,-0.35 0.35,-0.35 0.35,-0.9 v -2.25 h 2.25 q 0.55,0 0.9,-0.35 0.35,-0.35 0.35,-0.9 0,-0.55 -0.35,-0.9 -0.35,-0.35 -0.9,-0.35 H 16.15 V 8.5 Q 16.15,7.95 15.8,7.6 15.45,7.25 14.9,7.25 14.35,7.25 14,7.6 13.65,7.95 13.65,8.5 v 2.25 H 11.4 q -0.55,0 -0.9,0.35 -0.35,0.35 -0.35,0.9 0,0.55 0.35,0.9 0.35,0.35 0.9,0.35 h 2.25 v 2.25 q 0,0.55 0.35,0.9 0.35,0.35 0.9,0.35 z m 7,-0.75 z"
         id="path408" /><path
         style="fill:#5555ff;stroke-width:0.247463"
         d="M 6.5725601,28.872175 C 5.4395503,28.655807 4.0836251,27.662403 3.5469481,26.655494 3.1778639,25.963021 3.0066745,25.159828 3.0738189,24.435648 3.1036493,24.113916 4.1124973,19.91554 5.3157033,15.105925 7.0787897,8.058281 7.5618345,6.2380194 7.8047027,5.7266079 8.2126744,4.8675356 9.0617687,4.0139908 9.9334344,3.5867186 11.119729,3.0052219 10.602126,3.0277858 22.177226,3.0529751 l 10.407764,0.022649 0.563763,0.1911957 c 1.182189,0.40093 2.332589,1.4167366 2.890055,2.5519285 0.175092,0.3565455 0.875848,3.0110255 2.457744,9.3099967 2.112258,8.410825 2.212915,8.847134 2.214944,9.600935 0.0034,1.255331 -0.394366,2.134286 -1.377829,3.044799 -1.732333,1.603836 -4.299288,1.556369 -5.940014,-0.109838 -0.464392,-0.471605 -0.619326,-0.727659 -1.41845,-2.344224 -0.493411,-0.998134 -1.037852,-2.006514 -1.209866,-2.240845 -0.676426,-0.921475 -1.786362,-1.685024 -2.847344,-1.958748 -0.750103,-0.193519 -11.289021,-0.198142 -12.04444,-0.0053 -0.912101,0.232861 -1.522671,0.592682 -2.241057,1.3207 -0.645404,0.654057 -0.694125,0.732682 -1.653393,2.668208 -0.935179,1.886924 -1.02021,2.026033 -1.579374,2.583838 -1.0716327,1.069026 -2.35301,1.465405 -3.8271689,1.183888 z M 29.723689,17.308797 c 0.785913,-0.529626 0.95055,-1.596725 0.355464,-2.303945 -0.311071,-0.369686 -0.649694,-0.516169 -1.193224,-0.516169 -1.037484,0 -1.583757,0.656048 -1.476422,1.773111 0.04451,0.463265 0.231849,0.768252 0.644326,1.048982 0.393428,0.267765 1.271128,0.266725 1.669856,-0.002 z M 15.629615,16.582122 c 0.464327,-0.28697 0.538192,-0.565176 0.538192,-2.027033 v -1.296656 l 1.350781,-5.81e-4 c 1.484192,-5.82e-4 1.649886,-0.04669 1.982706,-0.551511 0.215336,-0.326618 0.212684,-1.06091 -0.0051,-1.418124 -0.294317,-0.482696 -0.557763,-0.559978 -2.019146,-0.592322 l -1.309221,-0.02894 -3.1e-4,-1.3019154 C 16.167224,8.2212284 16.147516,8.0308629 16.005215,7.7974828 15.65945,7.2304117 14.94591,7.0426682 14.308744,7.3511149 13.701543,7.6450559 13.590933,7.9690383 13.590933,9.453626 v 1.213327 l -1.309218,0.02808 c -1.505014,0.03228 -1.734208,0.111434 -2.017546,0.696732 -0.3062964,0.632723 -0.141122,1.310537 0.408902,1.677977 0.263985,0.176353 0.368586,0.188687 1.600155,0.188687 h 1.317707 v 1.241464 c 0,0.682805 0.0399,1.346765 0.08866,1.475468 0.106841,0.281982 0.390377,0.600904 0.617901,0.695014 0.327564,0.135489 1.047239,0.08781 1.332119,-0.08826 z m 9.905122,-3.162976 c 0.297677,-0.112787 0.587713,-0.382417 0.754078,-0.701025 0.17038,-0.326296 0.16774,-1.091475 -0.0049,-1.424004 -0.415547,-0.800346 -1.49558,-1.081848 -2.236089,-0.582819 -0.451934,0.304558 -0.648133,0.675086 -0.648133,1.224017 0,0.755359 0.249466,1.215047 0.789687,1.455151 0.30278,0.134571 1.025245,0.149972 1.34537,0.02868 z m 8.072662,-0.0286 c 1.26926,-0.663093 1.048822,-2.567798 -0.33297,-2.87703 -0.540359,-0.120927 -1.014394,-0.01561 -1.403525,0.311821 -0.828759,0.697354 -0.578884,2.245976 0.423148,2.622498 0.249945,0.09392 1.094424,0.05708 1.313347,-0.05729 z M 29.578261,9.4044249 C 30.372326,9.0726432 30.686898,7.9284045 30.202949,7.1321566 29.702617,6.3089548 28.391101,6.2333381 27.727254,6.9894181 c -0.308558,0.3514277 -0.367151,0.5670041 -0.322371,1.1860761 0.04102,0.5670974 0.266132,0.9347032 0.71883,1.1738381 0.363574,0.192056 1.063317,0.2185595 1.454548,0.055093 z"
         id="path762" /></g></g></svg>
