<?xml version="1.0" encoding="UTF-8" standalone="no"?>
<!-- Created with Inkscape (http://www.inkscape.org/) -->

<!--
⁠$$\      $$\ $$\       $$\   $$\                $$$$$$\            $$\       $$\
⁠$$ | $\  $$ |$$ |      \__|  $$ |              $$  __$$\           \__|      $$ |
⁠$$ |$$$\ $$ |$$$$$$$\  $$\ $$$$$$\    $$$$$$\  $$ /  \__| $$$$$$\  $$\  $$$$$$$ | $$$$$$\   $$$$$$\   $$$$$$\   $$$$$$\
⁠$$ $$ $$\$$ |$$  __$$\ $$ |\_$$  _|  $$  __$$\ \$$$$$$\  $$  __$$\ $$ |$$  __$$ |$$  __$$\ $$  __$$\ $$  __$$\ $$  __$$\
⁠$$$$  _$$$$ |$$ |  $$ |$$ |  $$ |    $$$$$$$$ | \____$$\ $$ /  $$ |$$ |$$ /  $$ |$$$$$$$$ |$$ |  \__|$$ /  $$ |$$ /  $$ |
⁠$$$  / \$$$ |$$ |  $$ |$$ |  $$ |$$\ $$   ____|$$\   $$ |$$ |  $$ |$$ |$$ |  $$ |$$   ____|$$ |      $$ |  $$ |$$ |  $$ |
⁠$$  /   \$$ |$$ |  $$ |$$ |  \$$$$  |\$$$$$$$\ \$$$$$$  |$$$$$$$  |$$ |\$$$$$$$ |\$$$$$$$\ $$ |$$\   \$$$$$$$ |\$$$$$$$ |
⁠\__/     \__|\__|  \__|\__|   \____/  \_______| \______/ $$  ____/ \__| \_______| \_______|\__|\__|   \____$$ | \____$$ |
⁠                                                         $$ |                                        $$\   $$ |      $$ |
⁠                                                         $$ |                                        \$$$$$$  |      $$ |
⁠                                                         \__|                                         \______/       \__|
-->

<svg
   width="256"
   height="192"
   viewBox="0 0 256 192"
   version="1.1"
   id="svg5"
   inkscape:version="1.2.2 (b0a8486541, 2022-12-01)"
   sodipodi:docname="defprev.svg"
   inkscape:export-filename="/home/shell/Projects/whitespider/res/logo512.png"
   inkscape:export-xdpi="192"
   inkscape:export-ydpi="192"
   xmlns:inkscape="http://www.inkscape.org/namespaces/inkscape"
   xmlns:sodipodi="http://sodipodi.sourceforge.net/DTD/sodipodi-0.dtd"
   xmlns="http://www.w3.org/2000/svg"
   xmlns:svg="http://www.w3.org/2000/svg">
  <sodipodi:namedview
     id="namedview7"
     pagecolor="#ffffff"
     bordercolor="#111111"
     borderopacity="1"
     inkscape:pageshadow="0"
     inkscape:pageopacity="0"
     inkscape:pagecheckerboard="1"
     inkscape:document-units="px"
     showgrid="false"
     units="px"
     width="128px"
     inkscape:zoom="2.1266376"
     inkscape:cx="184.32854"
     inkscape:cy="74.060573"
     inkscape:window-width="1920"
     inkscape:window-height="1029"
     inkscape:window-x="0"
     inkscape:window-y="27"
     inkscape:window-maximized="1"
     inkscape:current-layer="layer1"
     borderlayer="true"
     scale-x="1"
     inkscape:showpageshadow="2"
     inkscape:deskcolor="#d1d1d1" />
  <defs
     id="defs2" />
  <g
     inkscape:label="Layer 1"
     inkscape:groupmode="layer"
     id="layer1">
    <g
       id="g7672"
       transform="matrix(1.0064777,0,0,1.0060592,-0.38590647,-0.79955041)"
       inkscape:export-filename="/home/shell/Pictures/tmp/gs/shark.png"
       inkscape:export-xdpi="96"
       inkscape:export-ydpi="96" />
    <g
       id="g204">
      <path
         id="rect168"
         style="fill:#f2f2f2;stroke-width:2.977"
         d="M 0,0 H 256 V 192 H 0 Z" />
      <path
         id="path853"
         style="color:#000000;fill:#ececec;stroke:none;stroke-width:1.47389;-inkscape-stroke:none"
         d="m 148.68765,48.010867 c -0.18929,0.02114 -0.3953,0.07452 -0.5586,0.185549 -0.32659,0.222047 -0.54858,0.516434 -0.89452,1.011728 -0.69189,0.990588 -1.81653,2.847942 -4.0117,6.488339 -0.82213,1.36342 -1.60742,2.652049 -2.21091,3.630891 -0.30175,0.489422 -0.55712,0.904758 -0.74805,1.207043 -0.15761,0.24953 -0.24375,0.37121 -0.27538,0.419925 l -0.41016,-0.255861 c -4.19629,-2.646736 -5.91771,-3.431518 -8.58197,-3.894566 -2.17777,-0.378496 -5.27979,-0.299164 -7.22065,0.210939 -1.57027,0.4127 -3.40114,1.300771 -5.90621,2.820338 -0.54424,0.33013 -1.06479,0.632351 -1.45703,0.845711 -0.12878,0.07005 -0.21348,0.111826 -0.30859,0.160157 -0.0995,-0.114321 -0.22205,-0.261651 -0.42578,-0.560552 -0.49512,-0.726438 -1.28271,-2.01173 -2.54685,-4.130896 -2.07038,-3.470717 -3.23461,-5.397379 -3.9824,-6.496152 -0.37389,-0.549387 -0.63746,-0.895255 -0.91601,-1.152354 -0.27854,-0.257099 -0.67666,-0.425785 -0.98632,-0.425785 -0.27934,0 -0.30723,0.03599 -0.49804,0.07813 -0.19081,0.04214 -0.43647,0.10274 -0.73632,0.177737 -0.59971,0.149992 -1.41272,0.362282 -2.36913,0.619146 -1.91282,0.513724 -4.403713,1.20242 -6.910108,1.90822 -2.506393,0.705798 -5.02699,1.42843 -6.996045,2.007831 -0.984527,0.2897 -1.831774,0.542895 -2.472639,0.742193 -0.640867,0.199298 -1.012443,0.310191 -1.289054,0.435551 -0.533158,0.241626 -0.883431,0.77938 -1.009758,1.347668 -0.126327,0.568289 -0.1009,1.209938 0.02148,1.976581 l 0.269529,1.673843 1.488271,-0.05859 c 0.181051,-0.0074 0.278406,-0.03354 0.462887,-0.07031 0.184481,-0.03677 0.416046,-0.08819 0.695308,-0.152346 0.558524,-0.128299 1.302909,-0.31113 2.185532,-0.533207 1.765241,-0.444154 4.079297,-1.049687 6.523392,-1.712907 2.438189,-0.661617 4.739305,-1.274122 6.478475,-1.72853 0.86958,-0.227204 1.60017,-0.415255 2.13475,-0.548833 0.53458,-0.133578 0.96274,-0.22418 0.91015,-0.216799 0.21114,-0.02964 0.29458,-0.02335 0.31054,-0.01953 0.016,0.0038 0.0379,-0.0024 0.16797,0.13086 0.26025,0.266346 0.77444,1.03997 1.68749,2.513694 1.43767,2.320508 2.54002,4.169297 3.27927,5.492237 0.36963,0.66147 0.64824,1.193143 0.82812,1.574233 0.12524,0.265326 0.18599,0.501549 0.21094,0.558599 -0.007,-0.0403 -0.0321,0.152752 -0.21875,0.513676 -0.20014,0.386954 -0.53349,0.938223 -1.00976,1.662124 -0.76773,1.166899 -1.83405,2.86722 -2.39256,3.820346 l -0.51367,0.878915 -2.64256,-2.56643 c -0.91779,-0.891297 -1.79979,-1.725367 -2.49022,-2.353536 -0.34521,-0.314083 -0.64196,-0.576127 -0.87499,-0.773445 -0.11651,-0.09866 -0.21586,-0.177987 -0.30469,-0.246095 -0.0888,-0.06811 -0.12506,-0.114799 -0.30273,-0.195315 -0.28582,-0.129532 -0.81277,-0.1744 -1.20116,-0.01172 -0.38839,0.162662 -0.759294,0.420808 -1.396477,0.861336 -1.958921,1.354341 -14.000189,10.459949 -16.351449,12.359487 -1.276804,1.031506 -1.949218,1.565732 -2.380844,2.10744 -0.215812,0.270854 -0.373781,0.581812 -0.425778,0.896493 -0.052,0.31468 -0.01236,0.580622 0.02734,0.835944 0.107733,0.692857 0.230788,1.228095 0.412106,1.660172 0.09066,0.216036 0.192746,0.409941 0.365233,0.591801 0.172486,0.181861 0.462265,0.355472 0.783197,0.355472 0.482772,0 0.714267,-0.180538 1.156242,-0.445316 0.441976,-0.264777 1.034748,-0.665572 1.880846,-1.271496 1.692196,-1.211848 4.386819,-3.237118 8.722596,-6.533261 3.24702,-2.468446 5.196462,-3.936464 6.365191,-4.777387 0.584367,-0.420461 0.975207,-0.68449 1.214837,-0.828133 0.0816,-0.0489 0.002,-0.02363 0.0469,-0.04102 0.15904,0.127976 0.38071,0.323199 0.64453,0.564458 0.53833,0.492307 1.23378,1.166646 1.9199,1.855486 0.68613,0.688839 1.36719,1.393106 1.87499,1.951188 0.2539,0.279041 0.46539,0.521351 0.60742,0.697272 0.0568,0.07033 0.0929,0.118105 0.12304,0.160158 -0.008,-0.01831 -0.0101,-0.02517 -0.0234,0.09766 -0.0185,0.170527 -0.0527,0.414585 -0.10351,0.703131 -0.10157,0.577094 -0.2619,1.339383 -0.45508,2.140644 -0.3895,1.61564 -0.9179,4.193541 -1.18749,5.789114 -0.22628,1.339268 -0.35263,1.995575 -0.43359,2.265645 -0.0367,-0.0043 0.006,-0.0012 -0.0371,-0.01172 -0.16282,-0.0395 -0.39741,-0.10632 -0.67187,-0.195314 -0.54891,-0.178 -1.26896,-0.44334 -2.04881,-0.757819 -0.76034,-0.306613 -1.468852,-0.576629 -2.005849,-0.765632 -0.268498,-0.0945 -0.493774,-0.166499 -0.673824,-0.218752 -0.09003,-0.02613 -0.164581,-0.04587 -0.249998,-0.0625 -0.04271,-0.0083 -0.08552,-0.01753 -0.156249,-0.02148 -0.03537,-0.0019 -0.07608,-0.0037 -0.142577,0.0039 -0.03325,0.0039 -0.07603,0.01097 -0.126952,0.02539 -0.05093,0.01446 -0.186253,0.08126 -0.187499,0.08203 -0.164677,0.101233 -0.156088,0.122679 -0.185545,0.154298 -0.02946,0.03162 -0.05169,0.06 -0.07813,0.0918 -0.05286,0.06359 -0.112216,0.139039 -0.185546,0.234377 -0.146663,0.190676 -0.343303,0.452709 -0.585932,0.78321 -0.485257,0.661002 -1.155916,1.589426 -1.949206,2.699244 -1.58658,2.219637 -3.668571,5.1688 -5.763632,8.152417 -2.095061,2.983611 -4.201253,6.001981 -5.830038,8.361401 -0.814393,1.17971 -1.511146,2.19391 -2.02733,2.95901 -0.516185,0.76511 -0.820498,1.21751 -0.974602,1.50392 -0.239723,0.44554 -0.181634,0.81128 -0.121093,1.18751 0.06054,0.37624 0.179287,0.76059 0.328122,1.12306 0.148835,0.36247 0.320273,0.69659 0.544919,0.98243 0.112322,0.14292 0.234797,0.27843 0.423825,0.39649 0.189028,0.11806 0.511729,0.22493 0.837885,0.11914 0.254432,-0.0825 0.360039,-0.19111 0.49023,-0.31055 0.130192,-0.11944 0.261965,-0.26325 0.421873,-0.44922 0.319814,-0.37195 0.741799,-0.91383 1.330068,-1.7051 1.176537,-1.58252 3.011584,-4.15696 5.890585,-8.24616 3.454982,-4.9073 5.70188,-8.079055 7.103467,-10.017672 0.700793,-0.969309 1.190155,-1.630774 1.507802,-2.03908 0.08308,-0.106779 0.120794,-0.148964 0.179686,-0.220705 0.225399,0.08098 0.53072,0.198689 0.88476,0.3418 0.71712,0.289877 1.62071,0.678791 2.44725,1.056649 0.52825,0.241491 0.89321,0.433196 1.08788,0.564458 0.0838,0.05647 0.10867,0.08921 0.12305,0.10547 0.007,0.05095 0.0122,0.0958 0.0293,0.24219 0.0244,0.209031 0.0554,0.493231 0.0898,0.82618 0.0688,0.665896 0.15195,1.532039 0.23437,2.439475 0.16809,1.8505 0.54564,4.754425 0.84765,6.521545 0.14792,0.86551 0.28172,1.67463 0.37891,2.27736 0.0381,0.2364 0.0648,0.40896 0.0898,0.57227 -0.51011,0.11356 -1.57634,0.28313 -3.56639,0.5918 -0.99406,0.15419 -1.931787,0.30734 -2.648415,0.42774 -0.358315,0.0602 -0.660931,0.11276 -0.888666,0.1543 -0.227732,0.0416 -0.303542,0.0424 -0.499996,0.10352 -0.215879,0.0671 -0.463199,0.22846 -0.636715,0.42578 -0.173514,0.19732 -0.308146,0.42449 -0.462887,0.73048 -0.309483,0.61197 -0.698942,1.56531 -1.357412,3.21682 -2.284884,5.73072 -9.177551,23.94231 -10.374929,27.42407 -0.34087,0.99119 -0.544413,1.64632 -0.517574,2.30276 0.02684,0.65646 0.383862,1.20656 0.824212,1.64455 0.154055,0.15323 0.308391,0.29413 0.451169,0.40625 0.07139,0.056 0.136945,0.10159 0.216795,0.15039 0.07985,0.0488 0.08164,0.1504 0.47656,0.1504 -0.01351,0 0.189309,0.0355 0.451168,-0.0762 0.261858,-0.11167 0.404981,-0.29946 0.521481,-0.48047 0.233007,-0.36209 0.467616,-0.89307 0.937494,-2.04104 0.939757,-2.29591 2.741022,-6.97953 6.456986,-16.63101 2.312396,-6.00597 3.485241,-9.04854 4.14841,-10.58407 0.331584,-0.76777 0.543268,-1.15773 0.648432,-1.30275 0.105167,-0.14501 0.0075,-0.06 0.164062,-0.125 0.281599,-0.11703 1.224535,-0.33888 2.324205,-0.50196 1.09967,-0.16307 2.40386,-0.29579 3.60544,-0.35742 l 1.64648,-0.084 1.10936,2.28518 c 1.9202,3.96089 3.66002,6.4953 6.19722,9.00203 3.88839,3.84169 7.33761,5.80592 11.09563,6.18951 2.38803,0.24375 5.78922,0.0297 7.5312,-0.56641 2.73857,-0.93718 5.34766,-2.68406 8.18939,-5.42778 2.34727,-2.26633 4.0501,-4.71601 6.26754,-8.97665 0.41191,-0.79146 0.80225,-1.51767 1.09374,-2.04689 0.12668,-0.23001 0.22274,-0.40198 0.30469,-0.54297 0.20421,0.006 0.49508,0.0267 0.84179,0.0566 0.70908,0.0611 1.64187,0.16404 2.58591,0.28516 0.94404,0.12112 1.90142,0.25962 2.6582,0.38672 0.37838,0.0635 0.70712,0.1248 0.95311,0.17773 0.24599,0.0529 0.44828,0.12435 0.39063,0.0977 0.0708,0.0328 -0.0145,-0.0648 0.12695,0.16797 0.14151,0.23272 0.38705,0.73954 0.77733,1.67189 0.78057,1.86471 2.16573,5.44089 4.81052,12.30871 2.67231,6.93928 4.19663,10.88469 5.10934,13.16808 0.91269,2.28339 1.17184,2.89137 1.51171,3.32035 l 0.8867,1.11719 1.32031,-1.44532 c 0.22164,-0.24272 0.42019,-0.48696 0.57617,-0.70704 0.078,-0.11005 0.14614,-0.21386 0.20508,-0.32227 0.059,-0.10837 0.14647,-0.15378 0.14647,-0.50196 0,-0.18228 -0.0185,-0.17409 -0.0273,-0.20898 -0.009,-0.0349 -0.0176,-0.0656 -0.0273,-0.0977 -0.0195,-0.0643 -0.0449,-0.13991 -0.0762,-0.23242 -0.0627,-0.18503 -0.14949,-0.43676 -0.26367,-0.75392 -0.22836,-0.63434 -0.55841,-1.52357 -0.96094,-2.60549 -0.80503,-2.16384 -1.90767,-5.09359 -3.10544,-8.24812 -2.39555,-6.30905 -5.16453,-13.51765 -6.67182,-17.31265 -0.43396,-1.09257 -0.85083,-2.07286 -1.18554,-2.80276 -0.16736,-0.36495 -0.31436,-0.66611 -0.43945,-0.89845 -0.0625,-0.11617 -0.11815,-0.21417 -0.17969,-0.30664 -0.0616,-0.0925 -0.0247,-0.17293 -0.36133,-0.35157 -0.17963,-0.0953 -0.20909,-0.0844 -0.29687,-0.10742 -0.0878,-0.023 -0.19231,-0.0464 -0.31249,-0.0723 -0.24036,-0.0518 -0.55306,-0.11342 -0.92578,-0.18164 -0.74543,-0.13644 -1.7222,-0.29885 -2.75975,-0.45899 -1.9081,-0.2945 -2.98659,-0.46883 -3.53903,-0.58594 -0.0401,-0.008 -0.0239,-0.009 -0.0586,-0.0176 0.0179,-0.1169 0.033,-0.21212 0.0567,-0.36329 0.0813,-0.51892 0.19275,-1.21736 0.31639,-1.97267 0.62309,-3.805963 0.81856,-5.355438 1.0332,-8.224686 0.0675,-0.901581 0.13303,-1.525029 0.20118,-1.917986 0.0431,-0.248396 0.0986,-0.384962 0.11522,-0.435551 0.0234,-0.01758 0.0407,-0.03217 0.0723,-0.05078 0.10906,-0.06437 0.26903,-0.152276 0.45898,-0.248049 0.37988,-0.191545 0.88166,-0.422079 1.40038,-0.648444 1.03746,-0.45273 2.25409,-0.89444 2.49022,-0.941414 0.0251,-0.005 0.0211,-0.0057 0.0332,-0.0078 -0.0188,-0.0074 -0.0406,-0.02713 0.041,0.05273 0.21761,0.212984 0.70128,0.831194 1.58593,2.015643 0.99013,1.325645 4.22035,5.835068 7.14839,9.978607 3.8096,5.39107 5.73269,8.11303 6.79097,9.48055 0.52914,0.68376 0.80238,1.02614 1.16991,1.2754 0.18377,0.12463 0.47464,0.23763 0.76562,0.18751 0.29098,-0.0501 0.44286,-0.19512 0.51171,-0.25196 0.32256,-0.26626 0.33111,-0.42244 0.43359,-0.64649 0.10249,-0.22405 0.20049,-0.4788 0.29102,-0.74805 0.18106,-0.53852 0.3418,-1.03388 0.3418,-1.5508 0,-0.37789 -0.0795,-0.38036 -0.13672,-0.5 -0.0572,-0.11964 -0.12808,-0.25257 -0.21875,-0.41016 -0.18135,-0.31519 -0.44004,-0.72818 -0.77344,-1.24806 -0.66679,-1.03975 -1.63534,-2.49191 -2.86717,-4.29691 -2.46362,-3.61002 -5.97525,-8.63237 -10.1757,-14.539197 -0.84262,-1.184924 -1.61816,-2.279968 -2.19334,-3.089872 -0.57521,-0.809902 -0.99718,-1.40303 -0.97265,-1.3672 -9.4e-4,-0.0014 -0.11835,-0.142438 -0.17774,-0.185547 -0.0594,-0.04312 -0.11334,-0.06684 -0.16014,-0.08594 -0.0936,-0.03818 -0.15917,-0.04866 -0.21094,-0.05469 -0.10355,-0.01209 -0.16166,-0.0054 -0.21485,0 -0.10636,0.0107 -0.18771,0.02782 -0.2832,0.05078 -0.19096,0.04592 -0.4204,0.11514 -0.6953,0.20508 -0.54983,0.179891 -1.27172,0.442972 -2.05468,0.753912 -0.76108,0.302246 -1.5027,0.580567 -2.07616,0.777351 -0.28672,0.0984 -0.53248,0.175413 -0.70898,0.226564 -0.0333,0.0096 -0.003,0.0049 -0.0351,0.01172 -0.002,-0.0068 0.002,0.0013 0,-0.0059 -0.12884,-0.416889 -0.3205,-1.418645 -0.64649,-3.289092 -0.21751,-1.247957 -0.67622,-3.370727 -1.03319,-4.781293 -0.1732,-0.684376 -0.33026,-1.359028 -0.44336,-1.886736 -0.0566,-0.263853 -0.1048,-0.491275 -0.13476,-0.660162 -0.016,-0.08978 -0.0139,-0.08162 -0.0195,-0.13086 0.0136,-0.0439 0.0364,-0.127077 0.0918,-0.212893 0.11986,-0.185877 0.3125,-0.448414 0.55274,-0.744146 0.48049,-0.591464 1.14712,-1.328242 1.83592,-2.039082 0.68879,-0.710838 1.40388,-1.39909 1.97655,-1.894548 0.28633,-0.247729 0.53821,-0.447672 0.71679,-0.570318 0.0234,-0.01609 -0.0154,-0.002 0.008,-0.01367 0.11867,0.0788 0.24939,0.167216 0.45507,0.312503 0.51042,0.360542 1.2834,0.922749 2.35155,1.712905 2.13634,1.580311 5.45713,4.070621 10.2714,7.701241 1.72413,1.300232 3.19433,2.358416 4.27341,3.085966 0.53954,0.363773 0.97994,0.644918 1.32225,0.837897 0.17115,0.09649 0.31382,0.171086 0.46289,0.230471 0.0745,0.02969 0.14845,0.05828 0.25977,0.07813 0.1113,0.01985 0.28982,0.07611 0.58202,-0.103517 0.3804,-0.233856 0.35618,-0.381445 0.42774,-0.542973 0.0716,-0.161528 0.1315,-0.341599 0.19336,-0.548834 0.12371,-0.41447 0.24451,-0.937185 0.3496,-1.521497 0.0581,-0.32313 0.0734,-0.835839 -0.17382,-1.294934 -0.24725,-0.459095 -0.65121,-0.877349 -1.35156,-1.494154 -1.40071,-1.233608 -4.05515,-3.245504 -9.20111,-7.12897 -3.25188,-2.454082 -5.52168,-4.149204 -7.06634,-5.279344 -1.54466,-1.130141 -2.30477,-1.670565 -2.78905,-1.917986 -0.18887,-0.09649 -0.59895,-0.164039 -0.89257,-0.0625 -0.29363,0.101539 -0.50654,0.262413 -0.79687,0.500004 -0.58068,0.47518 -1.45256,1.317928 -3.06443,2.886744 -0.95837,0.932775 -1.85064,1.781525 -2.5078,2.392601 -0.21905,0.203692 -0.3633,0.334131 -0.52343,0.478519 -0.15674,-0.237709 -0.32833,-0.502128 -0.51758,-0.828132 -0.4917,-0.847012 -1.4685,-2.468087 -2.18553,-3.628939 -0.35044,-0.567346 -0.68327,-1.136525 -0.93163,-1.585952 -0.12419,-0.224714 -0.22705,-0.421202 -0.29883,-0.566411 -0.0718,-0.145212 -0.11677,-0.28855 -0.0937,-0.197268 -2.2e-4,-8.57e-4 -0.0144,-0.245921 0.39649,-1.072275 0.41092,-0.826353 1.18268,-2.154619 2.46677,-4.291054 1.58832,-2.642626 2.40129,-3.986744 2.84569,-4.591838 0.22219,-0.302548 0.34457,-0.393337 0.33984,-0.390629 -0.005,0.0027 -0.0724,0.0078 0.0957,0.0078 -0.10632,0 0.002,0.0026 0.11133,0.02344 0.10993,0.02083 0.26866,0.05419 0.46093,0.09766 0.38456,0.08695 0.91198,0.214679 1.53905,0.37305 1.25414,0.316747 2.90832,0.754212 4.65232,1.23634 4.4659,1.234603 7.65679,2.094039 9.79875,2.630882 1.07099,0.268423 1.87802,0.455621 2.46289,0.572272 0.29243,0.05832 0.5268,0.0992 0.72459,0.123047 0.19779,0.02385 0.31176,0.06302 0.60352,-0.0098 0.3198,-0.07984 0.56642,-0.305045 0.71483,-0.531255 0.14843,-0.22621 0.23364,-0.464774 0.29883,-0.732429 0.13039,-0.53531 0.17969,-1.197661 0.17969,-2.046893 0,-0.378987 0.0357,-0.693294 -0.20313,-1.082041 -0.23898,-0.388706 -0.6134,-0.500557 -0.91405,-0.595708 -1.57068,-0.497081 -6.38029,-1.899521 -11.02141,-3.228545 -2.32055,-0.664512 -4.5961,-1.30884 -6.38862,-1.810563 -1.79253,-0.501723 -3.06181,-0.850192 -3.52342,-0.955087 -0.0961,-0.02183 -0.26775,-0.03481 -0.45703,-0.01367 z" />
    </g>
  </g>
</svg>
